<svg xmlns="http://www.w3.org/2000/svg" viewBox="0 0 48 48">
  <defs>
    <linearGradient id="drop" x1="0" y1="0" x2="1" y2="1">
      <stop offset="0" stop-color="#7ac943"/>
      <stop offset="0.55" stop-color="#1b8a3f"/>
      <stop offset="1" stop-color="#f5a623"/>
    </linearGradient>
  </defs>
  <path fill="url(#drop)" d="M24 3C24 3 9 20.5 9 31a15 15 0 0 0 30 0C39 20.5 24 3 24 3Z"/>
  <path fill="#0c2015" d="M24 14c-4.6 5.8-8 11.4-8 16a8 8 0 0 0 16 0c0-4.6-3.4-10.2-8-16Zm0 5.2c3 4.1 5 8 5 10.8a5 5 0 0 1-10 0c0-2.8 2-6.7 5-10.8Z" opacity="0.9"/>
</svg>
